<svg width="18" height="18" viewBox="0 0 18 18" fill="none" xmlns="http://www.w3.org/2000/svg">
<path d="M14.25 4.5H12V3.75C12 3.35218 11.842 2.97064 11.5607 2.68934C11.2794 2.40804 10.8978 2.25 10.5 2.25H7.5C7.10218 2.25 6.72064 2.40804 6.43934 2.68934C6.15804 2.97064 6 3.35218 6 3.75V4.5H3.75C3.15326 4.5 2.58097 4.73705 2.15901 5.15901C1.73705 5.58097 1.5 6.15326 1.5 6.75V13.5C1.5 14.0967 1.73705 14.669 2.15901 15.091C2.58097 15.5129 3.15326 15.75 3.75 15.75H14.25C14.8467 15.75 15.419 15.5129 15.841 15.091C16.2629 14.669 16.5 14.0967 16.5 13.5V6.75C16.5 6.15326 16.2629 5.58097 15.841 5.15901C15.419 4.73705 14.8467 4.5 14.25 4.5ZM7.5 3.75H10.5V4.5H7.5V3.75ZM15 13.5C15 13.6989 14.921 13.8897 14.7803 14.0303C14.6397 14.171 14.4489 14.25 14.25 14.25H3.75C3.55109 14.25 3.36032 14.171 3.21967 14.0303C3.07902 13.8897 3 13.6989 3 13.5V9.2925L6.51 10.5C6.58964 10.5107 6.67036 10.5107 6.75 10.5H11.25C11.3313 10.4984 11.4121 10.4858 11.49 10.4625L15 9.2925V13.5ZM15 7.71L11.13 9H6.87L3 7.71V6.75C3 6.55109 3.07902 6.36032 3.21967 6.21967C3.36032 6.07902 3.55109 6 3.75 6H14.25C14.4489 6 14.6397 6.07902 14.7803 6.21967C14.921 6.36032 15 6.55109 15 6.75V7.71Z" fill="#FF7A01"/>
</svg>
