<svg width="18" height="18" viewBox="0 0 18 18" fill="none" xmlns="http://www.w3.org/2000/svg">
<path d="M5.25 8.25195H6.75V9.75195H5.25V8.25195ZM15.75 4.50195V15.002C15.75 15.827 15.075 16.502 14.25 16.502H3.75C3.35218 16.502 2.97064 16.3439 2.68934 16.0626C2.40804 15.7813 2.25 15.3998 2.25 15.002L2.2575 4.50195C2.2575 3.67695 2.9175 3.00195 3.75 3.00195H4.5V1.50195H6V3.00195H12V1.50195H13.5V3.00195H14.25C15.075 3.00195 15.75 3.67695 15.75 4.50195ZM3.75 6.00195H14.25V4.50195H3.75V6.00195ZM14.25 15.002V7.50195H3.75V15.002H14.25ZM11.25 9.75195H12.75V8.25195H11.25V9.75195ZM8.25 9.75195H9.75V8.25195H8.25V9.75195Z" fill="#FF7A01"/>
</svg>
